<svg xmlns="http://www.w3.org/2000/svg" viewBox="0 0 304.6 304.6">

      <path fill="white" d="M152.3 0C68.3 0 0 68.3 0 152.3s68.3 152.3 152.3 152.3 152.3-68.3 152.3-152.3S236.3 0 152.3 0zm0 274.6a122.3 122.3 0 1 1 122.3-122.3 122.4 122.4 0 0 1-122.3 122.3z"/>
      <circle fill="white" cx="152.3" cy="152.3" r="15"/>
      <path fill="white" d="M152.3 87a65.3 65.3 0 1 0 65.3 65.3A65.4 65.4 0 0 0 152.3 87zm0 100.7a35.3 35.3 0 1 1 35.3-35.4 35.4 35.4 0 0 1-35.3 35.3z"/>
      <path fill="white" d="M152.3 73.4v-30a109 109 0 0 0-109 108.9h30a79 79 0 0 1 79-79z"/>
</svg>