<svg xmlns="http://www.w3.org/2000/svg" viewBox="0 0 2272.53 658.35"><defs><style>.cls-1{fill:#fff;}.cls-2{fill:#02f;}</style></defs><title>fail_2</title><g id="Ebene_2" data-name="Ebene 2"><g id="Ebene_1-2" data-name="Ebene 1"><rect class="cls-1" width="1136.27" height="658.35"/><path class="cls-2" d="M689.9,438.41c-4.61,0-8.34-4.92-8.34-11V230.94c0-6.08,3.73-11,8.34-11s8.34,4.92,8.34,11V427.41C698.24,433.49,694.51,438.41,689.9,438.41Z"/><path class="cls-2" d="M788.16,377.69h0c-4.61,0-8.34-4.92-8.34-11V313.91c0-18.34,11.31-33.26,25.22-33.26s25.23,14.92,25.23,33.26c0,6.08-3.74,11-8.35,11s-8.34-4.92-8.34-11-3.83-11.26-8.54-11.26-8.54,5.05-8.54,11.26v52.78C796.5,372.77,792.77,377.69,788.16,377.69Z"/><path class="cls-2" d="M740.55,415.63c-13.91,0-25.23-14.92-25.23-33.26V279.59c0-18.34,11.32-33.26,25.23-33.26s25.22,14.92,25.22,33.26c0,6.08-3.73,11-8.34,11s-8.34-4.92-8.34-11-3.83-11.26-8.54-11.26S732,273.38,732,279.59V382.37c0,6.21,3.83,11.26,8.54,11.26s8.54-5.05,8.54-11.26,3.73-11,8.34-11,8.34,4.93,8.34,11C765.77,400.71,754.46,415.63,740.55,415.63Z"/><path class="cls-2" d="M636.45,424.09c-.3,0-.61,0-.92,0-13.64-.64-24.32-15.47-24.32-33.77,0-6.07,3.74-11,8.35-11s8.34,4.93,8.34,11c0,6.29,3.69,11.57,8.22,11.78a7.44,7.44,0,0,0,6.25-3.14,13.16,13.16,0,0,0,2.61-8.11V351.62c0-6.26-3.86-11.39-8.61-11.45C622.5,340,611.21,325,611.21,306.73V268.05c0-18.3,10.68-33.13,24.32-33.77,6.92-.33,13.45,3,18.43,9.3s7.7,14.83,7.7,23.93c0,6.08-3.73,11-8.34,11s-8.34-4.92-8.34-11a13.13,13.13,0,0,0-2.61-8.1,7.45,7.45,0,0,0-6.25-3.15c-4.53.21-8.22,5.5-8.22,11.79v38.68c0,6.26,3.86,11.39,8.61,11.44,13.87.16,25.15,15.16,25.15,33.45v40.14c0,.41,0,.82,0,1.22A38.22,38.22,0,0,1,654,414.77C649.21,420.81,643,424.09,636.45,424.09Z"/><path class="cls-2" d="M432.53,438.42h-.72c-13.52-.49-24.52-15.61-24.52-33.71v-114a13.17,13.17,0,0,0-2.58-8.07,7.52,7.52,0,0,0-6.2-3.18c-4.58.16-8.3,5.42-8.3,11.71v76.47c0,9.05-2.71,17.52-7.63,23.84s-11.43,9.64-18.29,9.4c-13.53-.49-24.53-15.61-24.53-33.71V328.71a13.11,13.11,0,0,0-2.58-8.07,7.51,7.51,0,0,0-6.2-3.18c-4.57.16-8.29,5.42-8.29,11.71,0,6.08-3.74,11-8.35,11s-8.34-4.92-8.34-11c0-18.09,11-33.22,24.52-33.71,6.89-.23,13.37,3.1,18.3,9.41s7.63,14.78,7.63,23.84v38.46c0,6.3,3.72,11.56,8.29,11.72a7.55,7.55,0,0,0,6.2-3.18,13.13,13.13,0,0,0,2.59-8.07V291.17c0-18.09,11-33.22,24.52-33.71,6.9-.23,13.37,3.1,18.29,9.41S424,281.65,424,290.71v114c0,6.29,3.72,11.55,8.29,11.71a7.48,7.48,0,0,0,6.2-3.18,13.11,13.11,0,0,0,2.58-8.07V253.65c0-18.1,11-33.22,24.53-33.71,6.86-.25,13.37,3.09,18.29,9.41s7.63,14.78,7.63,23.84V390.37c0,6.29,3.72,11.55,8.3,11.71a7.51,7.51,0,0,0,6.2-3.18,13.19,13.19,0,0,0,2.58-8.07V291.17c0-18.09,11-33.22,24.52-33.71,6.89-.23,13.37,3.1,18.3,9.41S559,281.65,559,290.71v76.46c0,6.3,3.72,11.56,8.29,11.72a7.54,7.54,0,0,0,6.2-3.18,13.13,13.13,0,0,0,2.59-8.07v-76c0-6.07,3.73-11,8.34-11s8.34,4.93,8.34,11v76c0,9.05-2.72,17.52-7.64,23.84s-11.4,9.64-18.29,9.4c-13.52-.49-24.52-15.61-24.52-33.71V290.71a13.11,13.11,0,0,0-2.59-8.07,7.53,7.53,0,0,0-6.2-3.18c-4.57.16-8.29,5.42-8.29,11.71v99.66c0,9.06-2.71,17.52-7.64,23.84s-11.41,9.66-18.29,9.4c-13.52-.49-24.52-15.61-24.52-33.7V253.19a13.09,13.09,0,0,0-2.59-8.07,7.52,7.52,0,0,0-6.2-3.19c-4.57.17-8.29,5.42-8.29,11.72V405.16c0,9.06-2.71,17.52-7.63,23.84C445.35,435.09,439.14,438.42,432.53,438.42Z"/><rect class="cls-1" x="1136.27" width="1136.27" height="658.35"/><path class="cls-2" d="M1895.17,292.89a11,11,0,0,1-15.56,0L1740.68,154a11,11,0,0,1,15.56-15.56l138.93,138.93A11,11,0,0,1,1895.17,292.89Z"/><path class="cls-2" d="M1943.84,158.35h0a11,11,0,0,1-15.56,0L1891,121a33.26,33.26,0,1,1,47-47,11,11,0,1,1-15.56,15.56,11.26,11.26,0,1,0-15.92,15.92l37.32,37.33A11,11,0,0,1,1943.84,158.35Z"/><path class="cls-2" d="M1926.28,229.57a33.3,33.3,0,0,1-47,0l-72.68-72.68a33.26,33.26,0,0,1,47-47A11,11,0,1,1,1838,125.41a11.26,11.26,0,0,0-15.92,15.92L1894.8,214a11.26,11.26,0,1,0,15.92-15.92,11,11,0,0,1,15.56-15.56A33.3,33.3,0,0,1,1926.28,229.57Z"/><path class="cls-2" d="M1835.21,332.6l-.88.85a33.41,33.41,0,0,1-46.54-1.22,11,11,0,0,1,15.55-15.55c4.45,4.44,11.62,4.74,16,.67a11.26,11.26,0,0,0,.3-16.22l-27.73-27.73a11.48,11.48,0,0,0-16.12-.06,33.55,33.55,0,0,1-47.1-.2l-27.35-27.35a33.41,33.41,0,0,1-1.21-46.55,33.27,33.27,0,0,1,47.87-.87,11,11,0,1,1-15.56,15.56,11.27,11.27,0,0,0-16.21.3c-4.08,4.38-3.78,11.56.67,16l27.35,27.35a11.47,11.47,0,0,0,16.12.07,33.54,33.54,0,0,1,47.1.2l28.38,28.38a9.91,9.91,0,0,1,.82.91,33.25,33.25,0,0,1-1.46,45.46Z"/><path class="cls-2" d="M1655.22,532.85l-.67.66c-13,12.26-33.9,11.82-46.7-1l-80.6-80.6a11.18,11.18,0,0,0-8.12-3.3,11.33,11.33,0,0,0-8,3.53,11.58,11.58,0,0,0,.56,16l54.06,54.07a33.26,33.26,0,0,1-.66,47.68c-13,12.26-33.9,11.82-46.7-1l-27.2-27.19A11.24,11.24,0,0,0,1475,542a11.56,11.56,0,0,0,.55,16A11,11,0,0,1,1460,573.56c-12.79-12.8-13.23-33.74-1-46.7a33.26,33.26,0,0,1,47.68-.66l27.2,27.2a11.56,11.56,0,0,0,16,.55,11.27,11.27,0,0,0,.24-16.15l-54.07-54.06c-12.8-12.8-13.23-33.75-1-46.7a33.28,33.28,0,0,1,47.69-.67l80.6,80.61a11.57,11.57,0,0,0,16,.55,11.27,11.27,0,0,0,.24-16.15L1532.52,394.25c-12.8-12.8-13.23-33.75-1-46.7a33.27,33.27,0,0,1,47.68-.67l97,97a11.56,11.56,0,0,0,16,.56,11.27,11.27,0,0,0,.24-16.15L1622,357.82c-12.8-12.79-13.23-33.74-1-46.69a33.25,33.25,0,0,1,47.68-.67l54.06,54.07a11.58,11.58,0,0,0,16,.55,11.24,11.24,0,0,0,.23-16.14l-53.73-53.73a11,11,0,1,1,15.56-15.56l53.73,53.73a33.26,33.26,0,0,1-.66,47.68c-13,12.26-33.9,11.82-46.7-1L1653.16,326a11.26,11.26,0,0,0-16.15.23,11.59,11.59,0,0,0,.56,16L1708,412.73a33.27,33.27,0,0,1-.66,47.69c-12.95,12.26-33.9,11.82-46.7-1l-97-97a11.17,11.17,0,0,0-8.11-3.3,11.32,11.32,0,0,0-8,3.53,11.59,11.59,0,0,0,.56,16l107.13,107.13a33.26,33.26,0,0,1,0,47Z"/></g></g></svg>