<svg xmlns="http://www.w3.org/2000/svg" viewBox="0 0 2270.27 659.69"><defs><style>.cls-1{fill:#08ff72;}.cls-2,.cls-4{fill:none;stroke-linecap:round;stroke-linejoin:round;stroke-width:22px;}.cls-2{stroke:#f90691;}.cls-3{fill:#9b1f1f;}.cls-4{stroke:#fff;}</style></defs><title>fail_3</title><g id="Ebene_2" data-name="Ebene 2"><g id="Ebene_1-2" data-name="Ebene 1"><rect class="cls-1" x="1134" y="1.35" width="1136.27" height="658.35"/><line class="cls-2" x1="1862.68" y1="428.76" x2="1862.68" y2="232.28"/><path class="cls-2" d="M1992.23,368V315.26a22.26,22.26,0,0,1,44.52,0"/><path class="cls-2" d="M1951.71,383.72a22.26,22.26,0,1,1-44.51,0V280.94a22.26,22.26,0,1,1,44.51,0"/><path class="cls-2" d="M1814.45,268.86a22.26,22.26,0,0,0-23.07-22.24c-12.06.43-21.45,10.7-21.45,22.77v38.69a22.45,22.45,0,0,0,22.26,22.44h0A22.44,22.44,0,0,1,1814.45,353v39.21a22.27,22.27,0,0,1-23.07,22.25c-12.06-.43-21.45-10.71-21.45-22.78"/><path class="cls-2" d="M1723.65,293v76a22.26,22.26,0,0,1-22.88,22.25c-12.13-.33-21.64-10.58-21.64-22.71V292.06a22.25,22.25,0,0,0-22.88-22.25c-12.12.33-21.63,10.58-21.63,22.71v99.66a22.27,22.27,0,0,1-22.89,22.25c-12.12-.34-21.63-10.59-21.63-22.72V254.53a22.26,22.26,0,0,0-22.88-22.25c-12.13.34-21.64,10.59-21.64,22.72V406.51a22.26,22.26,0,0,1-22.88,22.25c-12.12-.33-21.63-10.59-21.63-22.71v-114a22.26,22.26,0,0,0-22.89-22.25c-12.12.33-21.63,10.58-21.63,22.71V369a22.25,22.25,0,0,1-22.88,22.25c-12.13-.33-21.64-10.58-21.64-22.71V330.06a22.25,22.25,0,0,0-22.88-22.25c-12.12.33-21.63,10.58-21.63,22.71"/><rect class="cls-3" width="1136.27" height="658.35"/><line class="cls-4" x1="728.68" y1="427.41" x2="728.68" y2="230.94"/><path class="cls-4" d="M858.23,366.69V313.91a22.26,22.26,0,0,1,44.52,0"/><path class="cls-4" d="M817.71,382.37a22.26,22.26,0,1,1-44.51,0V279.59a22.26,22.26,0,1,1,44.51,0"/><path class="cls-4" d="M680.45,267.51a22.26,22.26,0,0,0-23.07-22.24c-12.06.43-21.45,10.71-21.45,22.78v38.68a22.45,22.45,0,0,0,22.26,22.44h0a22.45,22.45,0,0,1,22.26,22.45v39.21a22.26,22.26,0,0,1-23.07,22.25c-12.06-.43-21.45-10.71-21.45-22.78"/><path class="cls-4" d="M589.65,291.65v76a22.26,22.26,0,0,1-22.88,22.25c-12.13-.34-21.64-10.59-21.64-22.72V290.71a22.26,22.26,0,0,0-22.88-22.25c-12.12.33-21.63,10.59-21.63,22.71v99.66a22.27,22.27,0,0,1-22.89,22.25c-12.12-.33-21.63-10.59-21.63-22.71V253.19a22.26,22.26,0,0,0-22.88-22.25c-12.13.33-21.64,10.58-21.64,22.71V405.16a22.25,22.25,0,0,1-22.88,22.25c-12.12-.33-21.63-10.58-21.63-22.71v-114a22.27,22.27,0,0,0-22.89-22.25c-12.12.33-21.63,10.59-21.63,22.71v76.47a22.26,22.26,0,0,1-22.88,22.25C287.54,389.55,278,379.3,278,367.17V328.71a22.26,22.26,0,0,0-22.88-22.25c-12.12.33-21.63,10.59-21.63,22.71"/></g></g></svg>