<svg xmlns="http://www.w3.org/2000/svg" xmlns:xlink="http://www.w3.org/1999/xlink" viewBox="0 0 2272.53 662.47"><defs><style>.cls-1{fill:#fff;}.cls-2{fill:#02f;}.cls-3{fill:#051535;}.cls-4{font-size:30px;font-family:HelveticaRounded-BoldCond, Helvetica Rounded;font-weight:700;}.cls-5{letter-spacing:-0.01em;}.cls-6{letter-spacing:-0.04em;}.cls-7{letter-spacing:0em;}.cls-8{letter-spacing:-0.04em;}</style></defs><title>fail_1</title><g id="Ebene_2" data-name="Ebene 2"><g id="Ebene_1-2" data-name="Ebene 1"><rect class="cls-1" x="1136.27" width="1136.27" height="658.35"/><rect class="cls-1" width="1136.27" height="658.35"/><image width="1200" height="630" transform="translate(1622.27 7.5) scale(0.42)" xlink:href="../../../../Desktop/ios11-emoji-social-card.jpg"/><path class="cls-2" d="M1865,438.41a11,11,0,0,1-11-11V230.94a11,11,0,1,1,22,0V427.41A11,11,0,0,1,1865,438.41Z"/><path class="cls-2" d="M1994.5,377.69h0a11,11,0,0,1-11-11V313.91a33.26,33.26,0,1,1,66.52,0,11,11,0,0,1-22,0,11.26,11.26,0,1,0-22.52,0v52.78A11,11,0,0,1,1994.5,377.69Z"/><path class="cls-2" d="M1931.72,415.63a33.3,33.3,0,0,1-33.26-33.26V279.59a33.26,33.26,0,0,1,66.52,0,11,11,0,1,1-22,0,11.26,11.26,0,1,0-22.52,0V382.37a11.26,11.26,0,1,0,22.52,0,11,11,0,1,1,22,0A33.3,33.3,0,0,1,1931.72,415.63Z"/><path class="cls-2" d="M1794.48,424.09c-.41,0-.81,0-1.22,0a33.41,33.41,0,0,1-32.06-33.77,11,11,0,1,1,22,0c0,6.29,4.86,11.57,10.84,11.79a11.26,11.26,0,0,0,11.68-11.26V351.62a11.49,11.49,0,0,0-11.35-11.45,33.54,33.54,0,0,1-33.17-33.44V268.05a33.41,33.41,0,0,1,32.06-33.77,33.26,33.26,0,0,1,34.46,33.23,11,11,0,0,1-22,0A11.26,11.26,0,0,0,1794,256.26c-6,.21-10.84,5.5-10.84,11.79v38.68a11.47,11.47,0,0,0,11.35,11.44,33.55,33.55,0,0,1,33.17,33.45v40.14a9.87,9.87,0,0,1-.07,1.22,33.26,33.26,0,0,1-33.17,31.11Z"/><path class="cls-2" d="M1525.61,438.42h-.94c-17.83-.49-32.34-15.61-32.34-33.71v-114a11.24,11.24,0,0,0-11.58-11.25,11.56,11.56,0,0,0-10.93,11.71v76.47a33.25,33.25,0,0,1-34.19,33.24c-17.83-.49-32.33-15.61-32.33-33.71V328.71a11.26,11.26,0,0,0-11.58-11.25,11.56,11.56,0,0,0-10.93,11.71,11,11,0,1,1-22,0c0-18.09,14.5-33.22,32.33-33.7a33.24,33.24,0,0,1,34.18,33.24v38.46a11.58,11.58,0,0,0,10.94,11.72,11.26,11.26,0,0,0,11.58-11.25V291.17c0-18.09,14.5-33.22,32.33-33.7a33.24,33.24,0,0,1,34.18,33.24v114a11.57,11.57,0,0,0,10.94,11.71,11.26,11.26,0,0,0,11.58-11.25V253.65c0-18.1,14.5-33.22,32.33-33.71a33.27,33.27,0,0,1,34.19,33.25V390.37a11.56,11.56,0,0,0,10.93,11.71,11.26,11.26,0,0,0,11.58-11.25V291.17c0-18.09,14.51-33.22,32.33-33.7a33.25,33.25,0,0,1,34.19,33.24v76.46c0,6.3,4.9,11.56,10.93,11.72a11.26,11.26,0,0,0,11.59-11.25v-76a11,11,0,0,1,22,0v76a33.25,33.25,0,0,1-34.19,33.24c-17.83-.49-32.33-15.61-32.33-33.71V290.71a11.26,11.26,0,0,0-11.58-11.25,11.57,11.57,0,0,0-10.94,11.71v99.66a33.24,33.24,0,0,1-34.18,33.24c-17.83-.48-32.33-15.61-32.33-33.7V253.19a11.16,11.16,0,0,0-3.41-8.07,11.27,11.27,0,0,0-8.17-3.19,11.58,11.58,0,0,0-10.94,11.72V405.16a33.26,33.26,0,0,1-33.24,33.26Z"/><path class="cls-2" d="M407.59,438.41a11,11,0,0,0,11-11V230.94a11,11,0,0,0-22,0V427.41A11,11,0,0,0,407.59,438.41Z"/><path class="cls-2" d="M278,377.69h0a11,11,0,0,0,11-11V313.91a33.26,33.26,0,1,0-66.51,0,11,11,0,0,0,22,0,11.26,11.26,0,1,1,22.51,0v52.78A11,11,0,0,0,278,377.69Z"/><path class="cls-2" d="M340.81,415.63a33.3,33.3,0,0,0,33.26-33.26V279.59a33.26,33.26,0,0,0-66.52,0,11,11,0,0,0,22,0,11.26,11.26,0,0,1,22.52,0V382.37a11.26,11.26,0,0,1-22.52,0,11,11,0,0,0-22,0A33.3,33.3,0,0,0,340.81,415.63Z"/><path class="cls-2" d="M478.06,424.09c.4,0,.81,0,1.22,0a33.4,33.4,0,0,0,32.05-33.77,11,11,0,0,0-22,0c0,6.29-4.86,11.57-10.83,11.79a11.26,11.26,0,0,1-11.68-11.26V351.62a11.49,11.49,0,0,1,11.35-11.45,33.53,33.53,0,0,0,33.16-33.44V268.05a33.4,33.4,0,0,0-32.05-33.77,33.25,33.25,0,0,0-34.46,33.23,11,11,0,0,0,22,0,11.26,11.26,0,0,1,11.68-11.25c6,.21,10.83,5.5,10.83,11.79v38.68A11.47,11.47,0,0,1,478,318.17a33.55,33.55,0,0,0-33.16,33.45v40.14c0,.41,0,.82.06,1.22a33.26,33.26,0,0,0,33.18,31.11Z"/><path class="cls-2" d="M746.93,438.42h.94c17.83-.49,32.33-15.61,32.33-33.71v-114a11.26,11.26,0,0,1,11.58-11.25,11.57,11.57,0,0,1,10.94,11.71v76.47a33.24,33.24,0,0,0,34.18,33.24c17.83-.49,32.33-15.61,32.33-33.71V328.71a11.26,11.26,0,0,1,11.58-11.25,11.57,11.57,0,0,1,10.94,11.71,11,11,0,1,0,22,0c0-18.09-14.5-33.22-32.33-33.7a33.25,33.25,0,0,0-34.19,33.24v38.46c0,6.3-4.9,11.56-10.93,11.72a11.26,11.26,0,0,1-11.58-11.25V291.17c0-18.09-14.51-33.22-32.33-33.7a33.25,33.25,0,0,0-34.19,33.24v114a11.56,11.56,0,0,1-10.93,11.71,11.26,11.26,0,0,1-11.59-11.25V253.65c0-18.1-14.5-33.22-32.33-33.71a33.25,33.25,0,0,0-34.18,33.25V390.37a11.57,11.57,0,0,1-10.94,11.71,11.26,11.26,0,0,1-11.58-11.25V291.17c0-18.09-14.5-33.22-32.33-33.7a33.24,33.24,0,0,0-34.18,33.24v76.46a11.58,11.58,0,0,1-10.94,11.72,11.26,11.26,0,0,1-11.58-11.25v-76a11,11,0,0,0-22,0v76a33.25,33.25,0,0,0,34.18,33.24c17.83-.49,32.34-15.61,32.34-33.71V290.71a11.24,11.24,0,0,1,11.58-11.25,11.56,11.56,0,0,1,10.93,11.71v99.66a33.25,33.25,0,0,0,34.19,33.24c17.82-.48,32.33-15.61,32.33-33.7V253.19a11.27,11.27,0,0,1,11.58-11.26,11.57,11.57,0,0,1,10.93,11.72V405.16a33.26,33.26,0,0,0,33.25,33.26Z"/><rect class="cls-3" x="1919.27" y="459" width="270" height="108" rx="54"/><text class="cls-4" transform="translate(1199.27 583.99)">Bacon ipsum dolor amet po<tspan class="cls-5" x="304.82" y="0">r</tspan><tspan x="314.52" y="0">chetta kevin </tspan><tspan x="0" y="36">pancetta rump corned beef andouill</tspan><tspan class="cls-6" x="396.44" y="36">e</tspan><tspan class="cls-7" x="408.12" y="36">. Jowl </tspan><tspan x="0" y="72">boudin andouille rump</tspan><tspan class="cls-8" x="251.51" y="72">,</tspan><tspan x="257.61" y="72" xml:space="preserve"> pork chop.</tspan></text></g></g></svg>