<svg xmlns="http://www.w3.org/2000/svg" viewBox="0 0 134.05 215.73"><defs><style>.cls-1{fill:#fff;}</style></defs><title>help</title><g id="Ebene_2" data-name="Ebene 2"><g id="Ebene_2-2" data-name="Ebene 2"><path class="cls-1" d="M118.79,101.13l-20.65,26c-2.69,3.3-5.38,9-5.38,14.07v2.69H43.68V137c0-13.47,3.3-22.74,12.27-33.21l21-24.54C81.39,74.2,85,67.32,85,62.53c0-10.47-6-18.25-18-18.25-12.56,0-17.95,8.08-17.95,18.85H0C0,22.44,30.82,0,67,0c35.31,0,67,21.24,67,62.83C134.05,78.39,127.16,90.36,118.79,101.13ZM68.22,215.73A28.43,28.43,0,1,1,96.65,187.3,28.61,28.61,0,0,1,68.22,215.73Z"/></g></g></svg>