<?xml version="1.0" encoding="utf-8"?>
<!-- Generator: Adobe Illustrator 23.0.1, SVG Export Plug-In . SVG Version: 6.00 Build 0)  -->
<svg version="1.1" id="Ebene_1" xmlns="http://www.w3.org/2000/svg" xmlns:xlink="http://www.w3.org/1999/xlink" x="0px" y="0px"
	 viewBox="0 0 595.4 522.5" style="enable-background:new 0 0 595.4 522.5;" xml:space="preserve">
<style type="text/css">
	.st0{fill:url(#SVGID_1_);stroke:#FFFFFF;stroke-width:17;stroke-miterlimit:10;}
</style>
<linearGradient id="SVGID_1_" gradientUnits="userSpaceOnUse" x1="297.7" y1="514.7756" x2="297.7" y2="9.2756" gradientTransform="matrix(1 0 0 -1 0 523.2756)">
	<stop  offset="0" style="stop-color:#FFA500"/>
	<stop  offset="1" style="stop-color:#FF4500"/>
</linearGradient>
<path class="st0" d="M536.4,390v-69.8c0-32.6,26.4-59,59-59c-32.6,0-59-26.4-59-59v-69.8C534.5,64,477.4,10.1,409,12.1
	c-65.7,1.9-118.5,54.7-120.3,120.3l-0.1,3c0,21.1-17.1,38.2-38.2,38.2s-38.2-17.1-38.2-38.2c0,0,0,0,0,0l-0.1-3
	c0-42.3-34.3-76.6-76.6-76.6S59,90.1,59,132.4v69.8c0,32.6-26.4,59-59,59c32.6,0,59,26.4,59,59v69.9c0,42.2,34.3,76.5,76.5,76.5
	s76.5-34.3,76.5-76.5l0.2-3c0-21.1,17.1-38.2,38.2-38.2s38.2,17.1,38.2,38.2l0.1,3c1.9,68.4,59,122.3,127.4,120.3
	c65.7-1.9,118.5-54.7,120.3-120.3V390z"/>
</svg>
