<svg xmlns="http://www.w3.org/2000/svg" viewBox="0 0 297.4 295.3">  
<path fill="#ffffff" d="M272.5 24.8a84.6 84.6 0 0 0-144.2 66.7L15.6 204a53.4 53.4 0 0 0 75.6 75.6l111-111a87.5 87.5 0 0 0 10.5.6 84.7 84.7 0 0 0 59.8-144.5zM251.3 46a54.8 54.8 0 0 1 12 59.6l-.2.2a70.4 70.4 0 0 1-71.5-71.6A54.8 54.8 0 0 1 251.3 46zM70 258.5a23.4 23.4 0 0 1-33-33.1l101-101a85 85 0 0 0 32.5 33.6zm142.8-119.2a54.7 54.7 0 0 1-49.1-78.7l.8-1.5a100 100 0 0 0 26.6 47.2 99.9 99.9 0 0 0 47.3 26.7 54 54 0 0 1-25.6 6.3z" data-name="Ebene 1"/>
</svg>