<svg xmlns="http://www.w3.org/2000/svg" viewBox="0 0 1136.27 658.35"><defs><style>.cls-1{fill:#fff;}.cls-2,.cls-5{fill:none;stroke:#051535;}.cls-2{stroke-miterlimit:10;stroke-width:5px;}.cls-3{fill:#051535;}.cls-4{opacity:0.5;}.cls-5{stroke-linecap:round;stroke-linejoin:round;stroke-width:22px;}</style></defs><title>spacing_1</title><g id="Ebene_2" data-name="Ebene 2"><g id="Ebene_1-2" data-name="Ebene 1"><rect class="cls-1" width="1136.27" height="658.35"/><line class="cls-1" x1="150" y1="439.17" x2="150" y2="219.17"/><line class="cls-2" x1="150" y1="436.67" x2="150" y2="221.67"/><rect class="cls-3" x="133.75" y="434.17" width="32.5" height="5"/><rect class="cls-3" x="133.75" y="219.17" width="32.5" height="5"/><g class="cls-4"><line class="cls-1" x1="919.77" y1="220" x2="919.77"/><line class="cls-2" x1="919.77" y1="217.5" x2="919.77" y2="2.5"/><rect class="cls-3" x="903.52" y="215" width="32.5" height="5"/><rect class="cls-3" x="903.52" width="32.5" height="5"/></g><g class="cls-4"><line class="cls-1" x1="1136.27" y1="439.17" x2="916.27" y2="439.17"/><line class="cls-2" x1="1133.77" y1="439.17" x2="918.77" y2="439.17"/><rect class="cls-3" x="1131.27" y="422.92" width="5" height="32.5"/><rect class="cls-3" x="916.27" y="422.92" width="5" height="32.5"/></g><line class="cls-5" x1="728.68" y1="427.41" x2="728.68" y2="230.94"/><path class="cls-5" d="M858.23,366.69V313.91a22.26,22.26,0,0,1,44.52,0"/><path class="cls-5" d="M817.71,382.37a22.26,22.26,0,1,1-44.51,0V279.59a22.26,22.26,0,1,1,44.51,0"/><path class="cls-5" d="M680.45,267.51a22.26,22.26,0,0,0-23.07-22.24c-12.06.43-21.45,10.71-21.45,22.78v38.68a22.45,22.45,0,0,0,22.26,22.44h0a22.45,22.45,0,0,1,22.26,22.45v39.21a22.26,22.26,0,0,1-23.07,22.25c-12.06-.43-21.45-10.71-21.45-22.78"/><path class="cls-5" d="M589.65,291.65v76a22.26,22.26,0,0,1-22.88,22.25c-12.13-.34-21.64-10.59-21.64-22.72V290.71a22.26,22.26,0,0,0-22.88-22.25c-12.12.33-21.63,10.59-21.63,22.71v99.66a22.27,22.27,0,0,1-22.89,22.25c-12.12-.33-21.63-10.59-21.63-22.71V253.19a22.26,22.26,0,0,0-22.88-22.25c-12.13.33-21.64,10.58-21.64,22.71V405.16a22.25,22.25,0,0,1-22.88,22.25c-12.12-.33-21.63-10.58-21.63-22.71v-114a22.27,22.27,0,0,0-22.89-22.25c-12.12.33-21.63,10.59-21.63,22.71v76.47a22.26,22.26,0,0,1-22.88,22.25C287.54,389.55,278,379.3,278,367.17V328.71a22.26,22.26,0,0,0-22.88-22.25c-12.12.33-21.63,10.59-21.63,22.71"/><path d="M58.32,323.78c-1,0-1.71-.33-1.71-1.23s.39-1.2,1.26-1.35c2.31-.39,3.3-1.14,4-2.52s.93-1.53,2-1.53c.66,0,1.29.45,1.29,1.62v18.48a2,2,0,1,1-4,0V323.78Z"/><path d="M75.84,324.5c0-1.5.72-2.19,1.83-2.19s1.83.69,1.83,2.19v9.93c0,1.2.51,1.71,1.41,1.71,1.29,0,1.92-.87,1.92-2.91V324.5c0-1.5.72-2.19,1.83-2.19s1.83.69,1.83,2.19v12.63c0,1.5-.72,2.19-1.83,2.19s-1.83-.69-1.83-2.1h-.06a3.61,3.61,0,0,1-3.42,2.1c-2,0-3.51-1.26-3.51-4Z"/><path d="M89.73,324.5c0-1.5.72-2.19,1.83-2.19s1.83.69,1.83,2.1h.06a3.61,3.61,0,0,1,3.42-2.1c2,0,3.51,1.26,3.51,4v10.8c0,1.5-.72,2.19-1.83,2.19s-1.83-.69-1.83-2.19V327.2c0-1.2-.63-1.71-1.41-1.71-1.17,0-1.92.87-1.92,2.91v8.73c0,1.5-.72,2.19-1.83,2.19s-1.83-.69-1.83-2.19Z"/><path d="M105.6,316.82a2.1,2.1,0,1,1-2.1,2.1A2.09,2.09,0,0,1,105.6,316.82Zm-1.83,7.68c0-1.5.72-2.19,1.83-2.19s1.83.69,1.83,2.19v12.63c0,1.5-.72,2.19-1.83,2.19s-1.83-.69-1.83-2.19Z"/><path d="M111.21,325.43h-.39c-1.08,0-1.62-.36-1.62-1.35s.54-1.38,1.62-1.38h.39v-2.79c0-1.5.72-2.19,1.83-2.19s1.83.69,1.83,2.19v2.79h.84c1.08,0,1.62.36,1.62,1.38s-.54,1.35-1.62,1.35h-.84V335c0,.69.15,1.08,1,1.14s1.35.33,1.35,1.29c0,1.23-.75,1.71-2.31,1.71-2.82,0-3.69-1.47-3.69-3Z"/></g></g></svg>